<?xml version="1.0" encoding="UTF-8"?>
<svg version="1.1" xmlns="http://www.w3.org/2000/svg" width="236" height="50">
<path d="M0 0 C0.89009766 -0.03287109 1.78019531 -0.06574219 2.69726562 -0.09960938 C7.14481625 -0.13587554 10.22663259 -0.03234779 13.76171875 2.83984375 C16.1875 5.4375 16.1875 5.4375 17.1875 7.4375 C17.97125 7.23125 18.755 7.025 19.5625 6.8125 C20.861875 6.626875 20.861875 6.626875 22.1875 6.4375 C25.46120104 9.71120104 25.14723955 13.9551697 25.1875 18.4375 C24.76694632 20.9608221 24.07756108 23.01455594 23.1875 25.4375 C22.6925 26.9225 22.6925 26.9225 22.1875 28.4375 C21.5275 28.4375 20.8675 28.4375 20.1875 28.4375 C20.001875 29.3965625 20.001875 29.3965625 19.8125 30.375 C19.60625 31.055625 19.4 31.73625 19.1875 32.4375 C18.1975 32.9325 18.1975 32.9325 17.1875 33.4375 C17.22875 34.71625 17.27 35.995 17.3125 37.3125 C17.3828125 39.4921875 17.3828125 39.4921875 17.1875 41.4375 C16.5275 42.0975 15.8675 42.7575 15.1875 43.4375 C12.5625 43.0625 12.5625 43.0625 10.1875 42.4375 C9.8575 41.4475 9.5275 40.4575 9.1875 39.4375 C5.46007753 39.5071123 1.84142695 39.6665377 -1.8125 40.4375 C-3.72994593 42.88059577 -3.72994593 42.88059577 -4.8125 45.4375 C-7.375 45.875 -7.375 45.875 -9.8125 45.4375 C-11.8125 43.4375 -11.8125 43.4375 -12 40.875 C-11.8125 38.4375 -11.8125 38.4375 -10.8125 37.4375 C-11.59625 37.06625 -12.38 36.695 -13.1875 36.3125 C-16.46192722 33.97362342 -16.63807807 32.19565017 -17.8125 28.4375 C-19.7725281 26.80073743 -19.7725281 26.80073743 -21.8125 25.4375 C-24.49451993 21.14251703 -23.95769981 17.3742935 -23.8125 12.4375 C-26.7825 12.4375 -29.7525 12.4375 -32.8125 12.4375 C-33.9375 7.6875 -33.9375 7.6875 -32.8125 5.4375 C-30.44921875 4.953125 -30.44921875 4.953125 -27.5 4.6875 C-26.53449219 4.58953125 -25.56898437 4.4915625 -24.57421875 4.390625 C-21.63471886 4.4405175 -20.22483233 4.79732702 -17.8125 6.4375 C-16.8225 7.9225 -16.8225 7.9225 -15.8125 9.4375 C-15.1628125 7.766875 -15.1628125 7.766875 -14.5 6.0625 C-11.29659614 -0.81888606 -6.71240842 0.04318204 0 0 Z M-5.8125 8.4375 C-7.69767053 10.32267053 -7.16217642 13.0078081 -7.3359375 15.52734375 C-7.8125 17.4375 -7.8125 17.4375 -10.8125 19.4375 C-9.3275 20.4275 -9.3275 20.4275 -7.8125 21.4375 C-7.51953125 23.6015625 -7.51953125 23.6015625 -7.625 26.0625 C-7.65207031 26.87976563 -7.67914062 27.69703125 -7.70703125 28.5390625 C-7.74183594 29.16554688 -7.77664062 29.79203125 -7.8125 30.4375 C-4.96054778 31.86347611 -2.48788825 31.5695252 0.6875 31.5625 C1.8528125 31.56507812 3.018125 31.56765625 4.21875 31.5703125 C7.11680786 31.6423431 7.11680786 31.6423431 9.1875 30.4375 C8.8575 23.5075 8.5275 16.5775 8.1875 9.4375 C7.1975 9.1075 6.2075 8.7775 5.1875 8.4375 C5.1875 15.0375 5.1875 21.6375 5.1875 28.4375 C4.5275 28.4375 3.8675 28.4375 3.1875 28.4375 C3.1875 29.0975 3.1875 29.7575 3.1875 30.4375 C0.75 30.0625 0.75 30.0625 -1.8125 29.4375 C-2.93073815 27.20102369 -3.00646061 25.78858471 -3.12890625 23.3046875 C-3.17080078 22.49902344 -3.21269531 21.69335938 -3.25585938 20.86328125 C-3.29517578 20.02152344 -3.33449219 19.17976563 -3.375 18.3125 C-3.41818359 17.46300781 -3.46136719 16.61351562 -3.50585938 15.73828125 C-3.61204236 13.63821777 -3.71278497 11.53788052 -3.8125 9.4375 C-4.4725 9.1075 -5.1325 8.7775 -5.8125 8.4375 Z " fill="#5B9932" transform="translate(34.8125,3.5625)"/>
<path d="M0 0 C1.98 0 3.96 0 6 0 C7.66342837 1.66342837 7.36048097 3.7825709 7.5625 6.0625 C7.64628906 6.98160156 7.73007813 7.90070312 7.81640625 8.84765625 C7.87699219 9.55792969 7.93757812 10.26820312 8 11 C8.66 10.01 9.32 9.02 10 8 C13.625 7.8125 13.625 7.8125 17 8 C16.67 9.32 16.34 10.64 16 12 C15.34 12 14.68 12 14 12 C12.60738122 14.67221575 12.60738122 14.67221575 12 18 C13.74348693 21.3669115 13.74348693 21.3669115 16 24 C16.391875 23.484375 16.78375 22.96875 17.1875 22.4375 C19 21 19 21 21.5 21.1875 C24 22 24 22 27 24 C27 23.01 27 22.02 27 21 C26.071875 20.896875 25.14375 20.79375 24.1875 20.6875 C21 20 21 20 19.125 18.8125 C17.44122451 16.09975061 17.60984439 14.12124489 18 11 C19.2109375 9.32421875 19.2109375 9.32421875 21 8 C23.375 7.70703125 23.375 7.70703125 26 7.8125 C26.86625 7.83957031 27.7325 7.86664062 28.625 7.89453125 C29.800625 7.94673828 29.800625 7.94673828 31 8 C31.99 8 32.98 8 34 8 C34.99 8 35.98 8 37 8 C36.9175 7.236875 36.835 6.47375 36.75 5.6875 C37 3 37 3 38.5625 1.1875 C41.84025365 -0.40935434 44.39967833 -0.26669049 48 0 C48.66 0.33 49.32 0.66 50 1 C49.67 2.65 49.34 4.3 49 6 C47.35 6.33 45.7 6.66 44 7 C46.475 7.495 46.475 7.495 49 8 C49 9.65 49 11.3 49 13 C47.35 13.33 45.7 13.66 44 14 C44 18.62 44 23.24 44 28 C41.69 28 39.38 28 37 28 C36.67 23.38 36.34 18.76 36 14 C33.10813214 12.66695302 33.10813214 12.66695302 30.8125 13.9375 C30.214375 14.288125 29.61625 14.63875 29 15 C29.639375 15.28875 30.27875 15.5775 30.9375 15.875 C33 17 33 17 34 19 C34.44590164 24.23934426 34.44590164 24.23934426 32.9375 26.8125 C28.18567696 29.72490767 23.2184603 28.97846131 18 28 C16.783125 28.04125 15.56625 28.0825 14.3125 28.125 C11 28 11 28 9.0625 26.5 C8.711875 26.005 8.36125 25.51 8 25 C7.67 25.99 7.34 26.98 7 28 C4.69 28 2.38 28 0 28 C0 18.76 0 9.52 0 0 Z " fill="#D25F15" transform="translate(121,4)"/>
<path d="M0 0 C2 0.9375 2 0.9375 3.3125 3.3125 C4.50984557 9.62577662 4.24396845 16.27385016 1 21.9375 C0.34 21.9375 -0.32 21.9375 -1 21.9375 C-1.185625 22.8965625 -1.185625 22.8965625 -1.375 23.875 C-1.58125 24.555625 -1.7875 25.23625 -2 25.9375 C-2.99 26.4325 -2.99 26.4325 -4 26.9375 C-3.95875 28.21625 -3.9175 29.495 -3.875 30.8125 C-3.8046875 32.9921875 -3.8046875 32.9921875 -4 34.9375 C-4.66 35.5975 -5.32 36.2575 -6 36.9375 C-8.625 36.5625 -8.625 36.5625 -11 35.9375 C-11.33 34.9475 -11.66 33.9575 -12 32.9375 C-15.72742247 33.0071123 -19.34607305 33.1665377 -23 33.9375 C-24.91744593 36.38059577 -24.91744593 36.38059577 -26 38.9375 C-28.5625 39.375 -28.5625 39.375 -31 38.9375 C-33 36.9375 -33 36.9375 -33.1875 34.375 C-33 31.9375 -33 31.9375 -32 30.9375 C-32.825 30.504375 -33.65 30.07125 -34.5 29.625 C-35.325 29.068125 -36.15 28.51125 -37 27.9375 C-37 26.9475 -37 25.9575 -37 24.9375 C-30.375 22.8125 -30.375 22.8125 -27 23.9375 C-24.42734182 24.00779121 -21.88358569 24.03120832 -19.3125 24 C-18.61060547 23.99548828 -17.90871094 23.99097656 -17.18554688 23.98632812 C-15.45699462 23.97456927 -13.72848635 23.95663454 -12 23.9375 C-12 23.2775 -12 22.6175 -12 21.9375 C-10.34614767 20.58830468 -8.678298 19.25616272 -7 17.9375 C-4.05930522 13.52645783 -4.55654767 9.19509051 -4.34375 3.9921875 C-4.2303125 2.98414063 -4.116875 1.97609375 -4 0.9375 C-2 -0.0625 -2 -0.0625 0 0 Z " fill="#9C4E13" transform="translate(56,10.0625)"/>
<path d="M0 0 C1.98 0 3.96 0 6 0 C6 9.24 6 18.48 6 28 C0.39 28 -5.22 28 -11 28 C-14.98095238 21.12380952 -14.98095238 21.12380952 -15.0625 16.3125 C-13.7442729 12.20273317 -12.53927433 10.4850224 -9 8 C-6.19321463 7.59457545 -3.85849288 7.75775484 -1 8 C-0.67 5.36 -0.34 2.72 0 0 Z M-7 14 C-7 16.64 -7 19.28 -7 22 C-4.525 22.495 -4.525 22.495 -2 23 C-1.34 21.02 -0.68 19.04 0 17 C-1.31200404 15.64567325 -2.64631404 14.31266518 -4 13 C-5.2236068 12.9254644 -5.2236068 12.9254644 -7 14 Z " fill="#5B9B2D" transform="translate(228,4)"/>
<path d="M0 0 C1.76171875 1.13671875 1.76171875 1.13671875 3 3 C3.29296875 5.91796875 3.29296875 5.91796875 3.1875 9.1875 C3.16042969 10.27417969 3.13335937 11.36085938 3.10546875 12.48046875 C3.07066406 13.31191406 3.03585938 14.14335937 3 15 C3.66 15 4.32 15 5 15 C5.33 16.65 5.66 18.3 6 20 C5.41992188 19.98839844 4.83984375 19.97679688 4.2421875 19.96484375 C0.59775392 19.92274633 -2.71709061 19.94662087 -6.3125 20.625 C-9.34866847 21.04865141 -10.51942632 20.74558889 -13 19 C-14.39935013 16.20129973 -14.25265405 14.09501208 -14 11 C-12.875 9.1875 -12.875 9.1875 -11 8 C-9.00448218 7.64080679 -7.00451121 7.30503431 -5 7 C-4.67 6.34 -4.34 5.68 -4 5 C-4.7425 5.350625 -5.485 5.70125 -6.25 6.0625 C-9.12647354 7.04311598 -10.26969007 7.2676439 -13 6 C-13.33 5.01 -13.66 4.02 -14 3 C-9.70334873 -0.3264397 -5.27851034 -1.00825478 0 0 Z M-8 13 C-7.67 13.99 -7.34 14.98 -7 16 C-6.01 15.67 -5.02 15.34 -4 15 C-3.67 14.01 -3.34 13.02 -3 12 C-5.9254644 11.7763932 -5.9254644 11.7763932 -8 13 Z " fill="#AB4913" transform="translate(114,12)"/>
<path d="M0 0 C3.0625 1.875 3.0625 1.875 5 5 C5.87165054 9.7473824 5.54032882 13.64917794 3.75 18.125 C-0.82422414 21.24378919 -5.66103044 20.89479937 -11 20 C-13.75 18.125 -13.75 18.125 -15 15 C-15.84745763 6.69491525 -15.84745763 6.69491525 -14 3 C-13.34 3 -12.68 3 -12 3 C-12 2.34 -12 1.68 -12 1 C-7.91888917 -0.36037028 -4.26270304 -0.62708766 0 0 Z M-6 5 C-7.75651531 6.61694804 -7.75651531 6.61694804 -9 9 C-8.28776153 12.22174544 -8.28776153 12.22174544 -7 15 C-5.35 14.67 -3.7 14.34 -2 14 C-1.20046862 10.71303767 -0.90341064 9.28976808 -2 6 C-4.01508358 5.26676204 -4.01508358 5.26676204 -6 5 Z " fill="#51872D" transform="translate(207,12)"/>
<path d="M0 0 C0.886875 -0.00257812 1.77375 -0.00515625 2.6875 -0.0078125 C5 0.125 5 0.125 7 1.125 C7 1.785 7 2.445 7 3.125 C7.66 3.125 8.32 3.125 9 3.125 C10.65025343 8.0757603 10.8413331 12.40575409 8.5625 17.0625 C7 19.125 7 19.125 6 20.125 C4.04577134 20.27667148 2.08490271 20.34679996 0.125 20.375 C-1.47988281 20.41367187 -1.47988281 20.41367187 -3.1171875 20.453125 C-6 20.125 -6 20.125 -7.8203125 18.796875 C-10.51572919 14.97688049 -10.50847326 10.6223583 -10 6.125 C-7.51029677 0.80608855 -5.68952043 -0.0165393 0 0 Z M-2.8125 6.1875 C-4.31589654 8.20318026 -4.31589654 8.20318026 -3.6875 11.3125 C-3.460625 12.240625 -3.23375 13.16875 -3 14.125 C-1.35 14.455 0.3 14.785 2 15.125 C4.36692966 12.27673402 4.36692966 12.27673402 3.625 8.9375 C3.41875 8.009375 3.2125 7.08125 3 6.125 C0.52000705 5.18431302 -0.46697084 4.81253463 -2.8125 6.1875 Z " fill="#548F2B" transform="translate(180,11.875)"/>
<path d="M0 0 C1.98 0 3.96 0 6 0 C6.33 4.62 6.66 9.24 7 14 C7.99 14 8.98 14 10 14 C11.35091528 11.29816945 11.33858058 8.88191794 11.5625 5.875 C11.64628906 4.77929688 11.73007813 3.68359375 11.81640625 2.5546875 C11.87699219 1.71164062 11.93757813 0.86859375 12 0 C13.98 0 15.96 0 18 0 C18 6.6 18 13.2 18 20 C4.375 21.3625 4.375 21.3625 1 19 C-0.65497356 15.69005287 -0.10084335 12.00877 -0.0625 8.375 C-0.05798828 7.57320312 -0.05347656 6.77140625 -0.04882812 5.9453125 C-0.03703168 3.96350994 -0.01909605 1.98174567 0 0 Z " fill="#B75111" transform="translate(62,12)"/>
<path d="M0 0 C0.66 0.33 1.32 0.66 2 1 C1.67 2.65 1.34 4.3 1 6 C-0.65 6.33 -2.3 6.66 -4 7 C-2.35 7.33 -0.7 7.66 1 8 C1 9.65 1 11.3 1 13 C-0.65 13.33 -2.3 13.66 -4 14 C-4 18.62 -4 23.24 -4 28 C-6.31 28 -8.62 28 -11 28 C-11.03738281 27.02417969 -11.07476562 26.04835938 -11.11328125 25.04296875 C-11.17902344 23.77066406 -11.24476563 22.49835937 -11.3125 21.1875 C-11.37050781 19.92292969 -11.42851562 18.65835937 -11.48828125 17.35546875 C-11.7113494 14.03396307 -11.7113494 14.03396307 -13.54296875 12.05078125 C-14.02378906 11.70402344 -14.50460938 11.35726563 -15 11 C-14.67 10.01 -14.34 9.02 -14 8 C-13.01 8 -12.02 8 -11 8 C-11.0825 7.236875 -11.165 6.47375 -11.25 5.6875 C-11 3 -11 3 -9.4375 1.1875 C-6.15974635 -0.40935434 -3.60032167 -0.26669049 0 0 Z " fill="#497922" transform="translate(169,4)"/>
<path d="M0 0 C5.28 0 10.56 0 16 0 C15.67 2.31 15.34 4.62 15 7 C14.34 7 13.68 7 13 7 C12.566875 7.8971875 12.566875 7.8971875 12.125 8.8125 C11 11 11 11 9 14 C11.31 14.33 13.62 14.66 16 15 C16 16.65 16 18.3 16 20 C10.39 20 4.78 20 -1 20 C-1 15 -1 15 1 12 C1.66 12 2.32 12 3 12 C3.28875 11.38125 3.5775 10.7625 3.875 10.125 C5 8 5 8 7 6 C4.69 5.67 2.38 5.34 0 5 C0 3.35 0 1.7 0 0 Z " fill="#AF5417" transform="translate(83,12)"/>
<path d="M0 0 C2 0.9375 2 0.9375 3.3125 3.3125 C4.50984557 9.62577662 4.24396845 16.27385016 1 21.9375 C0.34 21.9375 -0.32 21.9375 -1 21.9375 C-1.33 23.2575 -1.66 24.5775 -2 25.9375 C-3.98 25.9375 -5.96 25.9375 -8 25.9375 C-8.33 25.2775 -8.66 24.6175 -9 23.9375 C-8.2578125 22.265625 -8.2578125 22.265625 -7.125 20.1875 C-4.56001112 14.81156441 -4.43695543 9.66789534 -4.2734375 3.78125 C-4.18320312 2.8428125 -4.09296875 1.904375 -4 0.9375 C-2 -0.0625 -2 -0.0625 0 0 Z " fill="#F56705" transform="translate(56,10.0625)"/>
<path d="M0 0 C2.42130331 3.63195496 2.21022785 5.38349348 2.125 9.6875 C2.10695313 10.86699219 2.08890625 12.04648437 2.0703125 13.26171875 C2.04710938 14.16535156 2.02390625 15.06898437 2 16 C-0.31 16 -2.62 16 -5 16 C-5 13.03 -5 10.06 -5 7 C-7.97 7 -10.94 7 -14 7 C-15.125 2.25 -15.125 2.25 -14 0 C-9.59083041 -1.51565205 -4.46818371 -1.22896998 0 0 Z " fill="#F66507" transform="translate(16,9)"/>
<path d="M0 0 C0.33 0.66 0.66 1.32 1 2 C2.98 2 4.96 2 7 2 C7 1.34 7 0.68 7 0 C8.32 0 9.64 0 11 0 C11.33 1.32 11.66 2.64 12 4 C11.34 4 10.68 4 10 4 C9.11360611 6.65918166 8.82010975 8.48064641 8.68359375 11.23046875 C8.64169922 12.03291016 8.59980469 12.83535156 8.55664062 13.66210938 C8.49766602 14.91217773 8.49766602 14.91217773 8.4375 16.1875 C8.39431641 17.03248047 8.35113281 17.87746094 8.30664062 18.74804688 C8.20068482 20.83184433 8.0998498 22.91590103 8 25 C6.02 25.33 4.04 25.66 2 26 C2 19.4 2 12.8 2 6 C1.34 5.67 0.68 5.34 0 5 C0 4.34 0 3.68 0 3 C-0.66 3 -1.32 3 -2 3 C-1 1 -1 1 0 0 Z " fill="#5CA628" transform="translate(31,6)"/>
<path d="M0 0 C0.33 0 0.66 0 1 0 C1 2.64 1 5.28 1 8 C3.31 8 5.62 8 8 8 C7.34 8.66 6.68 9.32 6 10 C6.99 10.66 7.98 11.32 9 12 C8.67 14.97 8.34 17.94 8 21 C2.73233405 22.14132762 2.73233405 22.14132762 0 22 C-2.375 19.625 -2.375 19.625 -4 17 C-4.66 16.67 -5.32 16.34 -6 16 C-6.625 13.9375 -6.625 13.9375 -7 12 C-5.02 12 -3.04 12 -1 12 C-1.01160156 11.38511719 -1.02320313 10.77023438 -1.03515625 10.13671875 C-1.04417969 9.32847656 -1.05320312 8.52023438 -1.0625 7.6875 C-1.07410156 6.88699219 -1.08570313 6.08648437 -1.09765625 5.26171875 C-1 3 -1 3 0 0 Z " fill="#618128" transform="translate(19,13)"/>
<path d="M0 0 C0.886875 -0.00257812 1.77375 -0.00515625 2.6875 -0.0078125 C5 0.125 5 0.125 7 1.125 C6.67 1.785 6.34 2.445 6 3.125 C5.855625 3.805625 5.71125 4.48625 5.5625 5.1875 C5.376875 5.826875 5.19125 6.46625 5 7.125 C4.01 7.62 4.01 7.62 3 8.125 C3 7.465 3 6.805 3 6.125 C1.02 6.125 -0.96 6.125 -3 6.125 C-3.07427838 9.46752724 -3.06546953 11.9285914 -2 15.125 C-2.66 15.125 -3.32 15.125 -4 15.125 C-4 15.785 -4 16.445 -4 17.125 C-4.66 16.795 -5.32 16.465 -6 16.125 C-5.67 13.155 -5.34 10.185 -5 7.125 C-5.66 7.125 -6.32 7.125 -7 7.125 C-7 10.755 -7 14.385 -7 18.125 C-9 17.125 -9 17.125 -10 14.125 C-10.34578461 8.76533849 -10.45162946 5.50591432 -7 1.125 C-4.51245214 -0.11877393 -2.77344699 -0.00806235 0 0 Z " fill="#4A7F28" transform="translate(180,11.875)"/>
<path d="M0 0 C0.66 0.33 1.32 0.66 2 1 C3.15386771 6.37990819 4.26259131 12.40126838 1.79296875 17.484375 C0.2876523 19.25705909 -1.07146888 20.70129297 -3 22 C-3.66 22 -4.32 22 -5 22 C-5 15.4 -5 8.8 -5 2 C-4.67 2.66 -4.34 3.32 -4 4 C-3.01 3.67 -2.02 3.34 -1 3 C-0.67 2.01 -0.34 1.02 0 0 Z " fill="#699C2B" transform="translate(49,10)"/>
<path d="M0 0 C3.0625 2.375 3.0625 2.375 5 5 C5 5.66 5 6.32 5 7 C1.25 8.125 1.25 8.125 -1 7 C-1.33 7.66 -1.66 8.32 -2 9 C-2 8.01 -2 7.02 -2 6 C-5.24208567 6.35049575 -6.61527704 6.56221181 -8.8125 9.0625 C-9.4003125 10.0215625 -9.4003125 10.0215625 -10 11 C-10.66 10.34 -11.32 9.68 -12 9 C-11.34 9 -10.68 9 -10 9 C-10.33 7.35 -10.66 5.7 -11 4 C-11.66 4.66 -12.32 5.32 -13 6 C-13.33 5.01 -13.66 4.02 -14 3 C-13.34 3 -12.68 3 -12 3 C-12 2.34 -12 1.68 -12 1 C-7.94520405 -0.35159865 -4.23478445 -0.68231203 0 0 Z " fill="#52882C" transform="translate(207,12)"/>
<path d="M0 0 C1.76171875 1.13671875 1.76171875 1.13671875 3 3 C3.29296875 5.91796875 3.29296875 5.91796875 3.1875 9.1875 C3.16042969 10.27417969 3.13335937 11.36085938 3.10546875 12.48046875 C3.07066406 13.31191406 3.03585938 14.14335937 3 15 C2.34 15 1.68 15 1 15 C1 11.7 1 8.4 1 5 C0.34 5 -0.32 5 -1 5 C-1.33 5.99 -1.66 6.98 -2 8 C-2.99 7.67 -3.98 7.34 -5 7 C-4.67 6.34 -4.34 5.68 -4 5 C-4.7425 5.350625 -5.485 5.70125 -6.25 6.0625 C-9.12647354 7.04311598 -10.26969007 7.2676439 -13 6 C-13.33 5.01 -13.66 4.02 -14 3 C-9.70334873 -0.3264397 -5.27851034 -1.00825478 0 0 Z " fill="#A24811" transform="translate(114,12)"/>
<path d="M0 0 C0.86625 -0.00773438 1.7325 -0.01546875 2.625 -0.0234375 C5.39380767 0.44106642 6.26929299 1.22300246 8 3.375 C7.01 4.695 6.02 6.015 5 7.375 C4.05125 7.189375 3.1025 7.00375 2.125 6.8125 C-0.89868793 6.08813368 -0.89868793 6.08813368 -3 7.375 C-3 6.055 -3 4.735 -3 3.375 C-3.99 3.375 -4.98 3.375 -6 3.375 C-6.05749557 6.29130113 -6.05749557 6.29130113 -5 9.375 C-2.72555566 10.8676041 -0.62038301 11.51742011 2 12.375 C1.67 13.695 1.34 15.015 1 16.375 C1 15.385 1 14.395 1 13.375 C0.071875 13.271875 -0.85625 13.16875 -1.8125 13.0625 C-5 12.375 -5 12.375 -6.875 11.1875 C-8.55877549 8.47475061 -8.39015561 6.49624489 -8 3.375 C-5.69831622 0.212041 -3.80890556 -0.03400809 0 0 Z " fill="#CD5F13" transform="translate(147,11.625)"/>
<path d="M0 0 C1.66611905 -0.042721 3.33382885 -0.04063832 5 0 C5.33 0.33 5.66 0.66 6 1 C7.34267413 1.08631874 8.68974322 1.10706473 10.03515625 1.09765625 C10.84404297 1.09443359 11.65292969 1.09121094 12.48632812 1.08789062 C13.33646484 1.07951172 14.18660156 1.07113281 15.0625 1.0625 C15.91650391 1.05798828 16.77050781 1.05347656 17.65039062 1.04882812 C19.76695663 1.03700373 21.88348685 1.01906769 24 1 C23.01 1.495 23.01 1.495 22 2 C21.67 3.65 21.34 5.3 21 7 C17.37 7 13.74 7 10 7 C9.67 6.01 9.34 5.02 9 4 C6.03 4 3.06 4 0 4 C0 2.68 0 1.36 0 0 Z " fill="#E36812" transform="translate(22,35)"/>
<path d="M0 0 C2.31 0.33 4.62 0.66 7 1 C6.67 7.93 6.34 14.86 6 22 C7.32 22 8.64 22 10 22 C11.18031238 18.15158652 11.33235351 14.241721 11.5625 10.25 C11.60568359 9.55261719 11.64886719 8.85523438 11.69335938 8.13671875 C11.79889596 6.42468078 11.8998991 4.71236439 12 3 C12.33 3 12.66 3 13 3 C13 9.27 13 15.54 13 22 C12.34 22 11.68 22 11 22 C11 22.66 11 23.32 11 24 C8.625 24.1875 8.625 24.1875 6 24 C3.9859044 20.9788566 3.73163404 20.19339983 3.5859375 16.76953125 C3.54726563 15.96708984 3.50859375 15.16464844 3.46875 14.33789062 C3.42234375 13.08782227 3.42234375 13.08782227 3.375 11.8125 C3.33632813 10.96751953 3.29765625 10.12253906 3.2578125 9.25195312 C3.16363721 7.16832476 3.08073325 5.08419247 3 3 C2.67 3 2.34 3 2 3 C1.67 5.64 1.34 8.28 1 11 C0.67 11 0.34 11 0 11 C0 7.37 0 3.74 0 0 Z " fill="#3F6324" transform="translate(27,10)"/>
<path d="M0 0 C2 2 4 4 6 6 C6.66 5.01 7.32 4.02 8 3 C9.65 3.33 11.3 3.66 13 4 C13 4.99 13 5.98 13 7 C11.68 6.67 10.36 6.34 9 6 C9.33 7.32 9.66 8.64 10 10 C8.39667209 10.08121924 6.79215974 10.13929134 5.1875 10.1875 C4.29417969 10.22230469 3.40085938 10.25710937 2.48046875 10.29296875 C-0.41647515 9.95081002 -1.22555028 9.24606427 -3 7 C-3.66 7.99 -4.32 8.98 -5 10 C-5 7.69 -5 5.38 -5 3 C-4.01 3 -3.02 3 -2 3 C-2 3.66 -2 4.32 -2 5 C-1.34 4.67 -0.68 4.34 0 4 C0 2.68 0 1.36 0 0 Z " fill="#AB4A15" transform="translate(132,22)"/>
<path d="M0 0 C0.99 0 1.98 0 3 0 C3.33 3.96 3.66 7.92 4 12 C5.32 12.33 6.64 12.66 8 13 C8.66 15.64 9.32 18.28 10 21 C9.01 21 8.02 21 7 21 C7 20.34 7 19.68 7 19 C6.38125 18.9175 5.7625 18.835 5.125 18.75 C3 18 3 18 1.75 15.9375 C1.5025 15.298125 1.255 14.65875 1 14 C0.67 14 0.34 14 0 14 C0 9.38 0 4.76 0 0 Z " fill="#F66407" transform="translate(123,6)"/>
<path d="M0 0 C2 0.9375 2 0.9375 3.3125 3.3125 C4.50984557 9.62577662 4.24396845 16.27385016 1 21.9375 C0.34 21.9375 -0.32 21.9375 -1 21.9375 C-1.042721 20.27138095 -1.04063832 18.60367115 -1 16.9375 C-0.67 16.6075 -0.34 16.2775 0 15.9375 C0.23481693 13.75457226 0.41363323 11.56546826 0.5625 9.375 C0.64628906 8.17746094 0.73007812 6.97992188 0.81640625 5.74609375 C0.87699219 4.81925781 0.93757813 3.89242188 1 2.9375 C0.01 2.9375 -0.98 2.9375 -2 2.9375 C-2.33 6.2375 -2.66 9.5375 -3 12.9375 C-3.33 12.9375 -3.66 12.9375 -4 12.9375 C-4 8.9775 -4 5.0175 -4 0.9375 C-2 -0.0625 -2 -0.0625 0 0 Z " fill="#A55415" transform="translate(56,10.0625)"/>
<path d="M0 0 C1.98 0 3.96 0 6 0 C6 9.24 6 18.48 6 28 C4.02 28 2.04 28 0 28 C1.32 27.67 2.64 27.34 4 27 C4 18.75 4 10.5 4 2 C3.01 2 2.02 2 1 2 C1 4.31 1 6.62 1 9 C0.67 9 0.34 9 0 9 C0 6.03 0 3.06 0 0 Z " fill="#3F6727" transform="translate(228,4)"/>
<path d="M0 0 C1.32 0 2.64 0 4 0 C4 4.95 4 9.9 4 15 C2.35 15 0.7 15 -1 15 C-1.02715383 13.25008666 -1.04646551 11.50005055 -1.0625 9.75 C-1.07410156 8.77546875 -1.08570313 7.8009375 -1.09765625 6.796875 C-1.01195577 4.34241322 -0.70706066 2.33831086 0 0 Z " fill="#61A034" transform="translate(160,17)"/>
<path d="M0 0 C0.625 2.375 0.625 2.375 1 5 C0.34 5.66 -0.32 6.32 -1 7 C-3.625 6.625 -3.625 6.625 -6 6 C-5.67 8.97 -5.34 11.94 -5 15 C-5.99 14.67 -6.98 14.34 -8 14 C-8 11.03 -8 8.06 -8 5 C-6.35 4.67 -4.7 4.34 -3 4 C-3 3.34 -3 2.68 -3 2 C-4.65 2 -6.3 2 -8 2 C-8.33 2.99 -8.66 3.98 -9 5 C-9.99 5 -10.98 5 -12 5 C-9.28085049 -1.02097391 -6.0998139 -0.0983841 0 0 Z " fill="#487827" transform="translate(227,12)"/>
<path d="M0 0 C1.32 0 2.64 0 4 0 C4 3.3 4 6.6 4 10 C4.99 10.33 5.98 10.66 7 11 C7 11.99 7 12.98 7 14 C4.625 14.125 4.625 14.125 2 14 C1.34 13.34 0.68 12.68 0 12 C0.375 8.375 0.375 8.375 1 5 C-0.32 5.33 -1.64 5.66 -3 6 C-2.67 5.01 -2.34 4.02 -2 3 C-1.34 3 -0.68 3 0 3 C0 2.01 0 1.02 0 0 Z " fill="#F2650C" transform="translate(111,17)"/>
<path d="M0 0 C0.33 0 0.66 0 1 0 C1.33 3.3 1.66 6.6 2 10 C2.66 9.01 3.32 8.02 4 7 C7.625 6.8125 7.625 6.8125 11 7 C10.67 8.32 10.34 9.64 10 11 C9.34 11 8.68 11 8 11 C7.34 12.65 6.68 14.3 6 16 C5.01 16 4.02 16 3 16 C3 15.34 3 14.68 3 14 C2.01 13.67 1.02 13.34 0 13 C0 8.71 0 4.42 0 0 Z " fill="#B04108" transform="translate(127,5)"/>
<path d="M0 0 C1 2 1 2 1 5 C1.66 4.67 2.32 4.34 3 4 C2.67 5.65 2.34 7.3 2 9 C2.66 9 3.32 9 4 9 C4 10.98 4 12.96 4 15 C2.02 15.33 0.04 15.66 -2 16 C-3.49574876 13.00850247 -2.64805018 10.70118979 -2.125 7.4375 C-1.94195313 6.26058594 -1.75890625 5.08367188 -1.5703125 3.87109375 C-1 1 -1 1 0 0 Z " fill="#5A932C" transform="translate(22,6)"/>
<path d="M0 0 C0.66 0 1.32 0 2 0 C2 2.97 2 5.94 2 9 C2.33 8.67 2.66 8.34 3 8 C5.69082872 8.17635452 8.32851446 8.61835921 11 9 C11.33 10.32 11.66 11.64 12 13 C10.18757948 13.02687279 8.37504767 13.04633715 6.5625 13.0625 C5.55316406 13.07410156 4.54382813 13.08570313 3.50390625 13.09765625 C1 13 1 13 0 12 C-0.07244053 9.98035801 -0.08377188 7.95832876 -0.0625 5.9375 C-0.05347656 4.83277344 -0.04445312 3.72804688 -0.03515625 2.58984375 C-0.02355469 1.73519531 -0.01195312 0.88054688 0 0 Z " fill="#5D9733" transform="translate(173,19)"/>
<path d="M0 0 C1.98 0 3.96 0 6 0 C6.06058594 0.98742188 6.12117188 1.97484375 6.18359375 2.9921875 C6.26738281 4.27351563 6.35117188 5.55484375 6.4375 6.875 C6.51871094 8.15117187 6.59992188 9.42734375 6.68359375 10.7421875 C6.79206027 13.88300152 6.79206027 13.88300152 8 16 C7.01 15.67 6.02 15.34 5 15 C5 10.71 5 6.42 5 2 C4.01 2 3.02 2 2 2 C2.33 7.28 2.66 12.56 3 18 C2.34 18.33 1.68 18.66 1 19 C-0.65497356 15.69005287 -0.10084335 12.00877 -0.0625 8.375 C-0.05798828 7.57320312 -0.05347656 6.77140625 -0.04882812 5.9453125 C-0.03703168 3.96350994 -0.01909605 1.98174567 0 0 Z " fill="#A24914" transform="translate(62,12)"/>
<path d="M0 0 C0.99 0 1.98 0 3 0 C3.04898438 0.92683594 3.09796875 1.85367187 3.1484375 2.80859375 C3.22320312 4.00613281 3.29796875 5.20367187 3.375 6.4375 C3.44460937 7.63246094 3.51421875 8.82742187 3.5859375 10.05859375 C3.72257812 11.02925781 3.85921875 11.99992187 4 13 C4.66 13.33 5.32 13.66 6 14 C5.67 14.99 5.34 15.98 5 17 C3.35 17 1.7 17 0 17 C0 11.39 0 5.78 0 0 Z " fill="#F56609" transform="translate(64,14)"/>
<path d="M0 0 C0.185625 0.639375 0.37125 1.27875 0.5625 1.9375 C1.94246056 4.42126213 1.94246056 4.42126213 5.625 4.75 C6.73875 4.8325 7.8525 4.915 9 5 C9 5.99 9 6.98 9 8 C4.71 8 0.42 8 -4 8 C-2.875 2.375 -2.875 2.375 0 0 Z " fill="#EC6914" transform="translate(88,23)"/>
<path d="M0 0 C3.4375 0.25 3.4375 0.25 5.4375 1.25 C5.1075 2.9 4.7775 4.55 4.4375 6.25 C2.7875 6.58 1.1375 6.91 -0.5625 7.25 C1.0875 7.58 2.7375 7.91 4.4375 8.25 C4.4375 9.9 4.4375 11.55 4.4375 13.25 C3.7775 12.26 3.1175 11.27 2.4375 10.25 C-0.12532742 9.52034634 -0.12532742 9.52034634 -2.5625 9.25 C-2.8925 7.93 -3.2225 6.61 -3.5625 5.25 C-1.5825 5.25 0.3975 5.25 2.4375 5.25 C2.4375 4.26 2.4375 3.27 2.4375 2.25 C-2.0175 2.745 -2.0175 2.745 -6.5625 3.25 C-3.5625 0.25 -3.5625 0.25 0 0 Z " fill="#426B24" transform="translate(165.5625,3.75)"/>
<path d="M0 0 C0 0.99 0 1.98 0 3 C-0.66 2.67 -1.32 2.34 -2 2 C-3.87056791 1.7724985 -5.74685958 1.59037189 -7.625 1.4375 C-8.62789062 1.35371094 -9.63078125 1.26992187 -10.6640625 1.18359375 C-11.43492188 1.12300781 -12.20578125 1.06242188 -13 1 C-12.67 2.32 -12.34 3.64 -12 5 C-9.36 5.33 -6.72 5.66 -4 6 C-4 9.3 -4 12.6 -4 16 C-4.33 16 -4.66 16 -5 16 C-5 13.03 -5 10.06 -5 7 C-7.97 7 -10.94 7 -14 7 C-15.125 2.25 -15.125 2.25 -14 0 C-9.35711632 -1.59599126 -4.74689945 -0.67221888 0 0 Z " fill="#884316" transform="translate(16,9)"/>
<path d="M0 0 C0.33 0 0.66 0 1 0 C1.125 6.75 1.125 6.75 0 9 C-0.66 9 -1.32 9 -2 9 C-1.67 10.65 -1.34 12.3 -1 14 C-0.01 14 0.98 14 2 14 C1.67 15.32 1.34 16.64 1 18 C-0.98 18 -2.96 18 -5 18 C-5.33 17.34 -5.66 16.68 -6 16 C-5.29296875 14.08203125 -5.29296875 14.08203125 -4.1875 11.8125 C-2.36304577 7.91107192 -1.06417881 4.16803369 0 0 Z " fill="#D6680D" transform="translate(53,18)"/>
<path d="M0 0 C1.98 0 3.96 0 6 0 C6 2.64 6 5.28 6 8 C4.35 8.66 2.7 9.32 1 10 C0.67 6.7 0.34 3.4 0 0 Z " fill="#56942D" transform="translate(206,19)"/>
<path d="M0 0 C1.65 0 3.3 0 5 0 C5 0.66 5 1.32 5 2 C3.824375 2.0928125 3.824375 2.0928125 2.625 2.1875 C-0.20075309 2.72665854 -0.20075309 2.72665854 -1.25 5.3125 C-1.7063553 6.94777316 -2.13170482 8.59267169 -2.5 10.25 C-2.665 10.8275 -2.83 11.405 -3 12 C-3.99 12.495 -3.99 12.495 -5 13 C-6.125 6.375 -6.125 6.375 -5 3 C-3.67696283 2.6278958 -2.34262065 2.29369827 -1 2 C-0.67 1.34 -0.34 0.68 0 0 Z " fill="#508928" transform="translate(219,14)"/>
<path d="M0 0 C0.99 0.33 1.98 0.66 3 1 C3 5.29 3 9.58 3 14 C1.02 14 -0.96 14 -3 14 C-3 10.7 -3 7.4 -3 4 C-2.67 4 -2.34 4 -2 4 C-2 6.64 -2 9.28 -2 12 C-1.01 12 -0.02 12 1 12 C0.67 8.04 0.34 4.08 0 0 Z " fill="#BD6816" transform="translate(15,11)"/>
<path d="M0 0 C0.66 0 1.32 0 2 0 C2 5.28 2 10.56 2 16 C0.35 16 -1.3 16 -3 16 C-3 15.01 -3 14.02 -3 13 C-2.50886719 12.55011719 -2.01773438 12.10023437 -1.51171875 11.63671875 C0.59284849 9.35813044 0.30604965 7.85527438 0.1875 4.8125 C0.16042969 3.91144531 0.13335937 3.01039062 0.10546875 2.08203125 C0.07066406 1.39496094 0.03585938 0.70789062 0 0 Z " fill="#F76507" transform="translate(76,14)"/>
<path d="M0 0 C0.66 0 1.32 0 2 0 C1.67 6.6 1.34 13.2 1 20 C-1.37170683 16.44243976 -1.50770955 13.56816138 -1.75 9.4375 C-1.80542969 8.75236328 -1.86085937 8.06722656 -1.91796875 7.36132812 C-2.03349021 5.57774679 -2.02485023 3.78714579 -2 2 C-1.34 1.34 -0.68 0.68 0 0 Z " fill="#609B3B" transform="translate(38,11)"/>
<path d="M0 0 C3.63 0 7.26 0 11 0 C9.02 0.99 9.02 0.99 7 2 C7.33 2.99 7.66 3.98 8 5 C5.69 5 3.38 5 1 5 C0.67 3.35 0.34 1.7 0 0 Z " fill="#ED6811" transform="translate(3,10)"/>
<path d="M0 0 C0.66 0.33 1.32 0.66 2 1 C2 3.31 2 5.62 2 8 C5.465 9.485 5.465 9.485 9 11 C8.67 12.32 8.34 13.64 8 15 C8 14.01 8 13.02 8 12 C7.071875 11.896875 6.14375 11.79375 5.1875 11.6875 C2 11 2 11 0.125 9.8125 C-1.51914844 7.16359419 -1.25961832 5.05051523 -1 2 C-0.67 1.34 -0.34 0.68 0 0 Z " fill="#9C440F" transform="translate(140,13)"/>
<path d="M0 0 C3.29159316 -0.05790353 6.58305603 -0.09356261 9.875 -0.125 C10.81214844 -0.14175781 11.74929687 -0.15851563 12.71484375 -0.17578125 C13.61074219 -0.18222656 14.50664063 -0.18867187 15.4296875 -0.1953125 C16.25710449 -0.20578613 17.08452148 -0.21625977 17.93701172 -0.22705078 C20 0 20 0 22 2 C20.04235617 2.19456705 18.08384679 2.38044247 16.125 2.5625 C15.03445312 2.66691406 13.94390625 2.77132813 12.8203125 2.87890625 C10 3 10 3 8 2 C6.45976004 1.93049459 4.91665012 1.91547643 3.375 1.9375 C2.55773437 1.94652344 1.74046875 1.95554687 0.8984375 1.96484375 C0.27195312 1.97644531 -0.35453125 1.98804688 -1 2 C-0.67 1.34 -0.34 0.68 0 0 Z " fill="#4A722D" transform="translate(25,4)"/>
<path d="M0 0 C0.99 0 1.98 0 3 0 C3.33 1.65 3.66 3.3 4 5 C5.32 5.33 6.64 5.66 8 6 C8 6.66 8 7.32 8 8 C5.66705225 8.04241723 3.33297433 8.04092937 1 8 C0 7 0 7 -0.0625 3.4375 C-0.041875 2.303125 -0.02125 1.16875 0 0 Z " fill="#F5650E" transform="translate(102,23)"/>
<path d="M0 0 C0.66 0 1.32 0 2 0 C2 1.32 2 2.64 2 4 C3.65 4 5.3 4 7 4 C7.33 2.68 7.66 1.36 8 0 C8.04254356 1.99954746 8.04080783 4.00041636 8 6 C7 7 7 7 4.5625 7.1875 C2 7 2 7 0 5 C-0.125 2.375 -0.125 2.375 0 0 Z " fill="#9D4F1C" transform="translate(23,42)"/>
<path d="M0 0 C0 0.66 0 1.32 0 2 C2.97 2 5.94 2 9 2 C9 2.33 9 2.66 9 3 C3.26157749 3.20413361 -1.60539047 3.27141454 -7 1 C-7.33 2.32 -7.66 3.64 -8 5 C-8.66 4.67 -9.32 4.34 -10 4 C-10 3.01 -10 2.02 -10 1 C-6.21812119 -0.83691257 -4.05431692 -1.15837626 0 0 Z " fill="#AF6921" transform="translate(29,34)"/>
<path d="M0 0 C1.62490954 -0.02698189 3.24994633 -0.04638757 4.875 -0.0625 C5.77992188 -0.07410156 6.68484375 -0.08570313 7.6171875 -0.09765625 C10 0 10 0 12 1 C11.67 1.66 11.34 2.32 11 3 C10.855625 3.680625 10.71125 4.36125 10.5625 5.0625 C10.376875 5.701875 10.19125 6.34125 10 7 C9.01 7.495 9.01 7.495 8 8 C8 7.34 8 6.68 8 6 C7.34 5.67 6.68 5.34 6 5 C6.66 5 7.32 5 8 5 C8 4.01 8 3.02 8 2 C5.36 1.67 2.72 1.34 0 1 C0 0.67 0 0.34 0 0 Z " fill="#457625" transform="translate(175,12)"/>
<path d="M0 0 C3.96 0 7.92 0 12 0 C12 0.66 12 1.32 12 2 C11.01 2.66 10.02 3.32 9 4 C8.67 4.66 8.34 5.32 8 6 C7.67 5.01 7.34 4.02 7 3 C4.69 2.67 2.38 2.34 0 2 C0 1.34 0 0.68 0 0 Z " fill="#F86504" transform="translate(85,14)"/>
<path d="M0 0 C-0.33 1.32 -0.66 2.64 -1 4 C-3.3125 4.625 -3.3125 4.625 -6 5 C-6.99 4.34 -7.98 3.68 -9 3 C-9 2.34 -9 1.68 -9 1 C-2.25 0 -2.25 0 0 0 Z " fill="#F46505" transform="translate(42,37)"/>
<path d="M0 0 C0.33 0.99 0.66 1.98 1 3 C0.67 3.66 0.34 4.32 0 5 C0.66 5.33 1.32 5.66 2 6 C2 6.66 2 7.32 2 8 C-5.625 9.25 -5.625 9.25 -9 7 C-8.2575 6.95875 -7.515 6.9175 -6.75 6.875 C-2.90448224 5.65142617 -1.95694517 3.40653418 0 0 Z " fill="#B74611" transform="translate(73,24)"/>
<path d="M0 0 C0 0.99 0 1.98 0 3 C-1.98 3 -3.96 3 -6 3 C-6 3.66 -6 4.32 -6 5 C-6.99 5 -7.98 5 -9 5 C-9 3.68 -9 2.36 -9 1 C-6.04335481 -0.4783226 -3.25770263 -0.06032783 0 0 Z " fill="#5FA42E" transform="translate(168,6)"/>
<path d="M0 0 C0.99 0.33 1.98 0.66 3 1 C3 2.98 3 4.96 3 7 C1.35 6.67 -0.3 6.34 -2 6 C-2 4.35 -2 2.7 -2 1 C-1.34 0.67 -0.68 0.34 0 0 Z " fill="#EA6711" transform="translate(47,38)"/>
<path d="M0 0 C1.65 0 3.3 0 5 0 C5 1.98 5 3.96 5 6 C2.69 5.67 0.38 5.34 -2 5 C-1.34 3.35 -0.68 1.7 0 0 Z " fill="#5CA02D" transform="translate(18,24)"/>
<path d="M0 0 C1.67542976 0.28604898 3.34385343 0.61781233 5 1 C5 1.99 5 2.98 5 4 C3.68 3.67 2.36 3.34 1 3 C1.33 4.32 1.66 5.64 2 7 C0.68 7 -0.64 7 -2 7 C-1.125 1.125 -1.125 1.125 0 0 Z " fill="#903F12" transform="translate(140,25)"/>
<path d="M0 0 C0.33 0 0.66 0 1 0 C1 2.64 1 5.28 1 8 C3.31 8 5.62 8 8 8 C5.64031256 10.09749995 4.45383006 10.96905704 1.25 11.1875 C0.5075 11.125625 -0.235 11.06375 -1 11 C-1.125 3.375 -1.125 3.375 0 0 Z " fill="#313C07" transform="translate(19,13)"/>
<path d="M0 0 C0.99 0.33 1.98 0.66 3 1 C3 2.98 3 4.96 3 7 C1.68 7.33 0.36 7.66 -1 8 C-1.125 2.25 -1.125 2.25 0 0 Z " fill="#405F24" transform="translate(25,24)"/>
<path d="M0 0 C0.433125 0.495 0.86625 0.99 1.3125 1.5 C2.99740483 3.33218192 2.99740483 3.33218192 6 3 C4.25 6.875 4.25 6.875 2 8 C1.67 6.68 1.34 5.36 1 4 C-0.98 4 -2.96 4 -5 4 C-4.360625 3.71125 -3.72125 3.4225 -3.0625 3.125 C-0.84793921 2.17176549 -0.84793921 2.17176549 0 0 Z " fill="#427722" transform="translate(183,24)"/>
<path d="M0 0 C0 0.66 0 1.32 0 2 C-4.32734391 4.22923777 -7.28400182 3.92470553 -12 3 C-12 2.67 -12 2.34 -12 2 C-7.82262526 0.40861915 -4.46839215 -0.21278058 0 0 Z " fill="#D34F12" transform="translate(154,29)"/>
<path d="M0 0 C0.99 1.32 1.98 2.64 3 4 C2.67 4.33 2.34 4.66 2 5 C1.92686433 7.53049402 1.90752473 10.03304837 1.9375 12.5625 C1.94201172 13.27341797 1.94652344 13.98433594 1.95117188 14.71679688 C1.96299136 16.47790013 1.98092737 18.23896036 2 20 C1.34 20 0.68 20 0 20 C0 13.4 0 6.8 0 0 Z " fill="#689F39" transform="translate(44,12)"/>
<path d="M0 0 C2.64 0.33 5.28 0.66 8 1 C8 1.99 8 2.98 8 4 C5.03 3.67 2.06 3.34 -1 3 C-0.67 2.01 -0.34 1.02 0 0 Z " fill="#60A32F" transform="translate(175,13)"/>
<path d="M0 0 C2.31 0 4.62 0 7 0 C6.67 1.32 6.34 2.64 6 4 C5.34 4 4.68 4 4 4 C3.67 4.66 3.34 5.32 3 6 C3 5.01 3 4.02 3 3 C1.35 3.33 -0.3 3.66 -2 4 C-1.34 2.68 -0.68 1.36 0 0 Z " fill="#994E16" transform="translate(131,12)"/>
<path d="M0 0 C1.32 0.99 2.64 1.98 4 3 C3.34 4.65 2.68 6.3 2 8 C0.68 8 -0.64 8 -2 8 C-2.33 7.01 -2.66 6.02 -3 5 C-1.68 4.67 -0.36 4.34 1 4 C0.67 2.68 0.34 1.36 0 0 Z " fill="#4D891F" transform="translate(47,6)"/>
<path d="M0 0 C0.33 0 0.66 0 1 0 C1 1.98 1 3.96 1 6 C2.98 6 4.96 6 7 6 C7 6.33 7 6.66 7 7 C4.03 7 1.06 7 -2 7 C-2.125 4.625 -2.125 4.625 -2 2 C-1.34 1.34 -0.68 0.68 0 0 Z " fill="#F96503" transform="translate(88,23)"/>
<path d="M0 0 C2.3828125 -0.29296875 2.3828125 -0.29296875 5.125 -0.1875 C6.03507812 -0.16042969 6.94515625 -0.13335937 7.8828125 -0.10546875 C8.58148438 -0.07066406 9.28015625 -0.03585937 10 0 C9.67 0.66 9.34 1.32 9 2 C6.49609375 2.4140625 6.49609375 2.4140625 3.4375 2.625 C2.42558594 2.69976563 1.41367188 2.77453125 0.37109375 2.8515625 C-0.41136719 2.90054687 -1.19382812 2.94953125 -2 3 C-1.34 2.01 -0.68 1.02 0 0 Z " fill="#F1660B" transform="translate(103,14)"/>
<path d="M0 0 C0.33 0 0.66 0 1 0 C1.25 5.625 1.25 5.625 -1 9 C-1.66 9 -2.32 9 -3 9 C-3 6.69 -3 4.38 -3 2 C-2.34 2 -1.68 2 -1 2 C-0.67 1.34 -0.34 0.68 0 0 Z " fill="#5EA432" transform="translate(218,19)"/>
<path d="M0 0 C0.66 0.33 1.32 0.66 2 1 C1.67 3.31 1.34 5.62 1 8 C0.01 8 -0.98 8 -2 8 C-1.125 1.125 -1.125 1.125 0 0 Z " fill="#59A82B" transform="translate(47,13)"/>
<path d="M0 0 C0.66 0 1.32 0 2 0 C2.33 1.98 2.66 3.96 3 6 C1.35 6.33 -0.3 6.66 -2 7 C-1.34 4.69 -0.68 2.38 0 0 Z " fill="#F76507" transform="translate(151,23)"/>
<path d="M0 0 C0.66 0 1.32 0 2 0 C2.33 0.99 2.66 1.98 3 3 C2.01 3.99 1.02 4.98 0 6 C-2.31 5.34 -4.62 4.68 -7 4 C-7 3.67 -7 3.34 -7 3 C-4.69 3 -2.38 3 0 3 C0 2.01 0 1.02 0 0 Z " fill="#884011" transform="translate(152,13)"/>
<path d="M0 0 C1.98 0.495 1.98 0.495 4 1 C4 2.32 4 3.64 4 5 C2.35 5 0.7 5 -1 5 C-0.67 3.35 -0.34 1.7 0 0 Z " fill="#F1680B" transform="translate(26,41)"/>
<path d="M0 0 C0.33 0 0.66 0 1 0 C1 2.97 1 5.94 1 9 C-0.32 9.33 -1.64 9.66 -3 10 C-2.39009109 6.44219804 -1.4216319 3.3171411 0 0 Z " fill="#59A425" transform="translate(230,21)"/>
<path d="M0 0 C0 0.99 0 1.98 0 3 C-2.31 3 -4.62 3 -7 3 C-7.33 2.34 -7.66 1.68 -8 1 C-4.93251126 -0.86240388 -3.40254489 -1.2151946 0 0 Z " fill="#689A42" transform="translate(226,29)"/>
<path d="M0 0 C1.5 1.375 1.5 1.375 3 3 C3 3.66 3 4.32 3 5 C-0.75 6.125 -0.75 6.125 -3 5 C-3.33 5.66 -3.66 6.32 -4 7 C-4 6.01 -4 5.02 -4 4 C-2.68 3.67 -1.36 3.34 0 3 C0 2.01 0 1.02 0 0 Z " fill="#457322" transform="translate(209,14)"/>
<path d="M0 0 C2.31 0.33 4.62 0.66 7 1 C7 1.99 7 2.98 7 4 C4.625 3.6875 4.625 3.6875 2 3 C1.34 2.01 0.68 1.02 0 0 Z " fill="#D45C12" transform="translate(129,28)"/>
<path d="M0 0 C1.32 0 2.64 0 4 0 C4 1.65 4 3.3 4 5 C3.01 5.33 2.02 5.66 1 6 C0.67 4.02 0.34 2.04 0 0 Z " fill="#DC5C0E" transform="translate(88,21)"/>
<path d="M0 0 C0.99 0.33 1.98 0.66 3 1 C2.01 2.98 1.02 4.96 0 7 C-0.99 6.34 -1.98 5.68 -3 5 C-2.34 5 -1.68 5 -1 5 C-1.33 3.68 -1.66 2.36 -2 1 C-1.34 0.67 -0.68 0.34 0 0 Z " fill="#487D24" transform="translate(198,16)"/>
<path d="M0 0 C0.33 0 0.66 0 1 0 C0.67 2.97 0.34 5.94 0 9 C-0.33 8.34 -0.66 7.68 -1 7 C-3.01669827 5.86649466 -3.01669827 5.86649466 -5 5 C-4.360625 4.731875 -3.72125 4.46375 -3.0625 4.1875 C-0.66868314 3.11332248 -0.66868314 3.11332248 0 0 Z " fill="#467B26" transform="translate(227,23)"/>
<path d="M0 0 C1.98 0 3.96 0 6 0 C6.33 0.99 6.66 1.98 7 3 C4.36 2.67 1.72 2.34 -1 2 C-0.67 1.34 -0.34 0.68 0 0 Z " fill="#60A131" transform="translate(178,28)"/>
<path d="M0 0 C1 3 1 3 1 6 C-0.32 6 -1.64 6 -3 6 C-2.42655063 3.13275314 -2.1385485 2.1385485 0 0 Z " fill="#61A133" transform="translate(196,15)"/>
<path d="M0 0 C1.32 0.33 2.64 0.66 4 1 C3.67 2.65 3.34 4.3 3 6 C2.01 6.33 1.02 6.66 0 7 C0.185625 6.21625 0.37125 5.4325 0.5625 4.625 C1.25962266 2.02910225 1.25962266 2.02910225 0 0 Z " fill="#60A135" transform="translate(184,14)"/>
<path d="M0 0 C1.32 0.33 2.64 0.66 4 1 C3.67 1.66 3.34 2.32 3 3 C2.67 3 2.34 3 2 3 C1.67 5.64 1.34 8.28 1 11 C0.67 11 0.34 11 0 11 C0 7.37 0 3.74 0 0 Z " fill="#325917" transform="translate(27,10)"/>
</svg>
